<svg xmlns="http://www.w3.org/2000/svg" xmlns:xlink="http://www.w3.org/1999/xlink" width="39" zoomAndPan="magnify" viewBox="0 0 29.25 29.250001" height="39" preserveAspectRatio="xMidYMid meet" version="1.0"><defs><g/><clipPath id="b4a9fd2778"><path d="M 4 4 L 26 4 L 26 26 L 4 26 Z M 4 4 " clip-rule="nonzero"/></clipPath><clipPath id="1406bf75da"><path d="M 15.425781 0.152344 L 26.546875 11.777344 L 11.226562 26.4375 L 0.101562 14.8125 Z M 15.425781 0.152344 " clip-rule="nonzero"/></clipPath><clipPath id="9dc67eb5be"><path d="M 15.425781 0.152344 L 30.085938 15.476562 L 14.765625 30.136719 L 0.101562 14.8125 Z M 15.425781 0.152344 " clip-rule="nonzero"/></clipPath><clipPath id="60e14e5877"><path d="M 19.734375 16.503906 L 20.765625 16.503906 L 20.765625 17.53125 L 19.734375 17.53125 Z M 19.734375 16.503906 " clip-rule="nonzero"/></clipPath><clipPath id="af7d3f50a2"><path d="M 20.25 16.503906 C 19.964844 16.503906 19.734375 16.734375 19.734375 17.015625 C 19.734375 17.300781 19.964844 17.53125 20.25 17.53125 C 20.535156 17.53125 20.765625 17.300781 20.765625 17.015625 C 20.765625 16.734375 20.535156 16.503906 20.25 16.503906 " clip-rule="nonzero"/></clipPath></defs><g clip-path="url(#b4a9fd2778)"><g clip-path="url(#1406bf75da)"><g clip-path="url(#9dc67eb5be)"><path fill="#ffffff" d="M 19.929688 24.285156 C 19.082031 24.722656 18.171875 25.027344 17.242188 25.214844 C 16.480469 25.359375 15.707031 25.4375 14.933594 25.433594 C 14.832031 25.433594 14.726562 25.425781 14.625 25.421875 C 14.523438 25.417969 14.417969 25.414062 14.316406 25.40625 L 14.007812 25.378906 L 13.855469 25.363281 L 13.703125 25.34375 L 13.394531 25.300781 C 13.292969 25.285156 13.195312 25.265625 13.09375 25.25 C 12.886719 25.21875 12.6875 25.167969 12.488281 25.125 C 12.457031 25.117188 12.429688 25.113281 12.394531 25.105469 C 12.363281 25.097656 12.332031 25.085938 12.296875 25.078125 C 12.230469 25.058594 12.160156 25.039062 12.082031 25.019531 C 11.925781 24.980469 11.753906 24.917969 11.570312 24.855469 C 11.523438 24.839844 11.472656 24.824219 11.425781 24.808594 C 11.378906 24.789062 11.328125 24.769531 11.28125 24.75 C 11.179688 24.710938 11.078125 24.671875 10.972656 24.628906 C 10.765625 24.535156 10.542969 24.441406 10.320312 24.324219 C 9.410156 23.875 8.4375 23.164062 7.609375 22.304688 C 6.789062 21.441406 6.125 20.4375 5.714844 19.511719 C 5.605469 19.285156 5.523438 19.054688 5.4375 18.84375 C 5.398438 18.738281 5.363281 18.632812 5.328125 18.53125 C 5.3125 18.480469 5.296875 18.433594 5.277344 18.382812 C 5.261719 18.335938 5.25 18.285156 5.234375 18.238281 C 5.183594 18.050781 5.128906 17.878906 5.097656 17.71875 C 5.078125 17.640625 5.0625 17.566406 5.046875 17.5 C 5.039062 17.464844 5.03125 17.433594 5.023438 17.402344 C 5.019531 17.367188 5.015625 17.339844 5.007812 17.308594 C 4.867188 16.546875 4.796875 15.777344 4.804688 15.003906 C 4.820312 14.179688 4.941406 13.359375 5.128906 12.558594 C 5.355469 11.636719 5.699219 10.738281 6.175781 9.910156 C 6.640625 9.078125 7.242188 8.324219 7.929688 7.65625 C 8.625 7 9.40625 6.429688 10.261719 6.003906 C 11.109375 5.5625 12.019531 5.261719 12.949219 5.074219 C 13.710938 4.929688 14.480469 4.851562 15.253906 4.855469 C 15.359375 4.851562 15.460938 4.863281 15.5625 4.867188 C 15.667969 4.871094 15.769531 4.875 15.871094 4.882812 L 16.179688 4.910156 L 16.335938 4.925781 L 16.792969 4.984375 C 16.894531 5 16.996094 5.023438 17.097656 5.039062 C 17.300781 5.070312 17.5 5.121094 17.703125 5.164062 C 17.730469 5.171875 17.761719 5.175781 17.792969 5.183594 C 17.824219 5.191406 17.855469 5.199219 17.890625 5.210938 C 17.957031 5.230469 18.03125 5.25 18.109375 5.269531 C 18.265625 5.308594 18.433594 5.371094 18.621094 5.433594 C 18.667969 5.449219 18.714844 5.460938 18.761719 5.480469 C 18.8125 5.5 18.859375 5.519531 18.910156 5.539062 C 19.007812 5.578125 19.109375 5.617188 19.21875 5.660156 C 19.421875 5.753906 19.648438 5.84375 19.871094 5.964844 C 20.777344 6.414062 21.75 7.125 22.578125 7.984375 C 23.398438 8.847656 24.066406 9.851562 24.472656 10.777344 C 24.585938 11.003906 24.664062 11.234375 24.753906 11.445312 C 24.789062 11.550781 24.824219 11.65625 24.859375 11.757812 C 24.878906 11.808594 24.894531 11.855469 24.910156 11.90625 C 24.925781 11.953125 24.9375 12.003906 24.953125 12.050781 C 25.007812 12.238281 25.058594 12.410156 25.09375 12.570312 C 25.109375 12.648438 25.125 12.71875 25.140625 12.789062 C 25.148438 12.824219 25.15625 12.855469 25.164062 12.886719 C 25.171875 12.917969 25.175781 12.949219 25.179688 12.980469 C 25.320312 13.738281 25.394531 14.511719 25.382812 15.285156 C 25.367188 16.109375 25.246094 16.929688 25.058594 17.730469 C 24.832031 18.652344 24.488281 19.550781 24.015625 20.375 C 23.546875 21.210938 22.945312 21.964844 22.261719 22.632812 C 21.5625 23.289062 20.78125 23.855469 19.929688 24.285156 Z M 22.429688 22.800781 C 23.128906 22.117188 23.746094 21.347656 24.222656 20.496094 C 24.710938 19.652344 25.0625 18.734375 25.289062 17.792969 L 25.390625 17.347656 C 25.390625 17.347656 25.414062 17.226562 25.445312 17.042969 C 25.488281 16.859375 25.515625 16.609375 25.550781 16.363281 C 25.570312 16.113281 25.601562 15.867188 25.605469 15.679688 C 25.613281 15.492188 25.617188 15.367188 25.617188 15.367188 C 25.617188 15.367188 25.621094 15.335938 25.621094 15.28125 C 25.621094 15.226562 25.621094 15.148438 25.621094 15.054688 C 25.625 14.867188 25.609375 14.617188 25.601562 14.367188 C 25.59375 14.242188 25.578125 14.121094 25.570312 14.003906 C 25.5625 13.945312 25.558594 13.890625 25.554688 13.835938 C 25.546875 13.78125 25.539062 13.730469 25.535156 13.683594 C 25.507812 13.5 25.492188 13.375 25.492188 13.375 C 25.492188 13.375 25.488281 13.347656 25.480469 13.304688 C 25.472656 13.265625 25.460938 13.207031 25.453125 13.152344 C 25.433594 13.042969 25.414062 12.929688 25.414062 12.929688 C 25.410156 12.898438 25.402344 12.867188 25.398438 12.835938 C 25.390625 12.804688 25.382812 12.769531 25.375 12.734375 C 25.359375 12.664062 25.34375 12.589844 25.324219 12.507812 C 25.292969 12.347656 25.238281 12.171875 25.183594 11.976562 C 25.167969 11.929688 25.15625 11.878906 25.140625 11.828125 C 25.121094 11.78125 25.105469 11.730469 25.089844 11.679688 C 25.054688 11.574219 25.015625 11.46875 24.980469 11.359375 C 24.890625 11.140625 24.808594 10.910156 24.695312 10.675781 C 24.277344 9.726562 23.59375 8.699219 22.753906 7.8125 C 21.910156 6.9375 20.910156 6.210938 19.980469 5.75 C 19.753906 5.628906 19.523438 5.535156 19.3125 5.4375 C 19.203125 5.394531 19.101562 5.351562 19 5.3125 C 18.949219 5.292969 18.898438 5.273438 18.847656 5.253906 C 18.800781 5.234375 18.75 5.222656 18.703125 5.203125 C 18.511719 5.140625 18.335938 5.082031 18.179688 5.039062 C 18.097656 5.019531 18.023438 5 17.953125 4.980469 C 17.921875 4.96875 17.886719 4.960938 17.855469 4.953125 C 17.824219 4.945312 17.792969 4.9375 17.761719 4.933594 C 17.761719 4.933594 17.652344 4.90625 17.539062 4.882812 C 17.484375 4.871094 17.429688 4.859375 17.386719 4.851562 C 17.347656 4.839844 17.320312 4.835938 17.320312 4.835938 C 17.320312 4.835938 17.195312 4.8125 17.011719 4.78125 C 16.964844 4.769531 16.917969 4.761719 16.863281 4.753906 C 16.808594 4.746094 16.753906 4.738281 16.695312 4.730469 C 16.582031 4.714844 16.457031 4.695312 16.332031 4.683594 C 16.082031 4.660156 15.835938 4.632812 15.648438 4.632812 C 15.554688 4.628906 15.476562 4.625 15.421875 4.625 C 15.367188 4.621094 15.335938 4.621094 15.335938 4.621094 C 15.335938 4.621094 15.210938 4.621094 15.023438 4.621094 C 14.835938 4.617188 14.585938 4.632812 14.339844 4.644531 C 14.089844 4.667969 13.839844 4.6875 13.65625 4.71875 C 13.46875 4.746094 13.347656 4.761719 13.347656 4.761719 L 12.898438 4.84375 C 11.949219 5.027344 11.015625 5.339844 10.152344 5.789062 C 9.28125 6.226562 8.480469 6.808594 7.769531 7.476562 L 7.765625 7.484375 L 7.757812 7.488281 C 7.058594 8.171875 6.441406 8.941406 5.964844 9.792969 C 5.480469 10.636719 5.128906 11.554688 4.898438 12.496094 L 4.800781 12.941406 C 4.800781 12.941406 4.777344 13.0625 4.742188 13.246094 C 4.703125 13.429688 4.675781 13.679688 4.636719 13.925781 C 4.617188 14.175781 4.585938 14.421875 4.585938 14.609375 C 4.574219 14.796875 4.570312 14.921875 4.570312 14.921875 C 4.570312 14.921875 4.570312 14.953125 4.570312 15.007812 C 4.570312 15.0625 4.570312 15.140625 4.570312 15.234375 C 4.5625 15.421875 4.578125 15.671875 4.585938 15.917969 C 4.597656 16.042969 4.609375 16.167969 4.621094 16.285156 C 4.625 16.34375 4.628906 16.398438 4.636719 16.453125 C 4.640625 16.507812 4.648438 16.554688 4.65625 16.601562 C 4.679688 16.789062 4.699219 16.910156 4.699219 16.910156 C 4.699219 16.910156 4.699219 16.941406 4.710938 16.980469 C 4.714844 17.023438 4.726562 17.078125 4.734375 17.136719 C 4.753906 17.246094 4.773438 17.359375 4.773438 17.359375 C 4.78125 17.390625 4.785156 17.421875 4.792969 17.453125 C 4.796875 17.484375 4.804688 17.519531 4.8125 17.554688 C 4.828125 17.625 4.847656 17.699219 4.863281 17.777344 C 4.898438 17.941406 4.953125 18.117188 5.007812 18.3125 C 5.019531 18.359375 5.03125 18.410156 5.050781 18.457031 C 5.066406 18.507812 5.082031 18.558594 5.101562 18.609375 C 5.136719 18.714844 5.171875 18.820312 5.210938 18.929688 C 5.296875 19.144531 5.382812 19.378906 5.496094 19.613281 C 5.914062 20.5625 6.59375 21.589844 7.433594 22.472656 C 8.28125 23.351562 9.277344 24.078125 10.207031 24.539062 C 10.433594 24.660156 10.664062 24.753906 10.875 24.851562 C 10.984375 24.894531 11.089844 24.9375 11.191406 24.976562 C 11.242188 24.996094 11.292969 25.015625 11.339844 25.035156 C 11.390625 25.050781 11.4375 25.066406 11.488281 25.082031 C 11.679688 25.144531 11.851562 25.207031 12.011719 25.25 C 12.089844 25.269531 12.164062 25.289062 12.234375 25.308594 C 12.269531 25.316406 12.300781 25.328125 12.335938 25.335938 C 12.367188 25.34375 12.398438 25.351562 12.425781 25.355469 C 12.425781 25.355469 12.539062 25.378906 12.648438 25.40625 C 12.703125 25.417969 12.757812 25.429688 12.800781 25.4375 C 12.84375 25.449219 12.871094 25.453125 12.871094 25.453125 C 12.871094 25.453125 12.992188 25.476562 13.175781 25.507812 C 13.222656 25.515625 13.273438 25.527344 13.324219 25.535156 C 13.378906 25.542969 13.433594 25.550781 13.492188 25.558594 C 13.609375 25.574219 13.734375 25.59375 13.855469 25.605469 C 14.105469 25.628906 14.351562 25.652344 14.539062 25.65625 C 14.632812 25.660156 14.710938 25.664062 14.765625 25.664062 C 14.820312 25.667969 14.851562 25.667969 14.851562 25.667969 C 14.851562 25.667969 14.976562 25.667969 15.164062 25.667969 C 15.351562 25.671875 15.601562 25.652344 15.851562 25.644531 C 16.097656 25.617188 16.347656 25.601562 16.535156 25.570312 C 16.71875 25.542969 16.84375 25.527344 16.84375 25.527344 L 17.289062 25.445312 C 18.242188 25.261719 19.171875 24.949219 20.039062 24.5 C 20.910156 24.0625 21.707031 23.480469 22.417969 22.808594 L 22.425781 22.804688 L 22.429688 22.800781 " fill-opacity="1" fill-rule="nonzero"/></g></g></g><g fill="#ffffff" fill-opacity="1"><g transform="translate(15.007923, 25.357092)"><g><path d="M 0.359375 -1.25 L 0.5625 -1.265625 L 1.125 -0.09375 L 0.890625 -0.078125 L 0.75 -0.359375 L 0.328125 -0.328125 L 0.25 -0.015625 L 0.015625 0 Z M 0.6875 -0.53125 L 0.484375 -0.984375 L 0.34375 -0.5 Z M 0.6875 -0.53125 "/></g></g></g><g fill="#ffffff" fill-opacity="1"><g transform="translate(16.899265, 25.121503)"><g><path d="M 0.125 -0.03125 L -0.1875 -1.1875 L 0.234375 -1.3125 C 0.316406 -1.332031 0.394531 -1.335938 0.46875 -1.328125 C 0.550781 -1.316406 0.625 -1.289062 0.6875 -1.25 C 0.757812 -1.207031 0.816406 -1.15625 0.859375 -1.09375 C 0.898438 -1.03125 0.929688 -0.960938 0.953125 -0.890625 C 0.972656 -0.804688 0.976562 -0.722656 0.96875 -0.640625 C 0.96875 -0.554688 0.945312 -0.484375 0.90625 -0.421875 C 0.863281 -0.359375 0.8125 -0.300781 0.75 -0.25 C 0.6875 -0.207031 0.617188 -0.175781 0.546875 -0.15625 Z M 0.734375 -0.828125 C 0.710938 -0.878906 0.6875 -0.925781 0.65625 -0.96875 C 0.632812 -1.007812 0.601562 -1.039062 0.5625 -1.0625 C 0.519531 -1.09375 0.472656 -1.113281 0.421875 -1.125 C 0.378906 -1.132812 0.332031 -1.132812 0.28125 -1.125 L 0.078125 -1.0625 L 0.296875 -0.296875 L 0.5 -0.359375 C 0.550781 -0.367188 0.59375 -0.382812 0.625 -0.40625 C 0.65625 -0.4375 0.679688 -0.472656 0.703125 -0.515625 C 0.734375 -0.566406 0.75 -0.617188 0.75 -0.671875 C 0.75 -0.722656 0.742188 -0.773438 0.734375 -0.828125 Z M 0.734375 -0.828125 "/></g></g></g><g fill="#ffffff" fill-opacity="1"><g transform="translate(18.799403, 24.531423)"><g><path d="M 0.984375 -0.5 L 0.625 -1.21875 L 0.625 -0.546875 L 0.5 -0.484375 L -0.03125 -0.875 L 0.328125 -0.15625 L 0.109375 -0.0625 L -0.4375 -1.140625 L -0.21875 -1.25 L 0.421875 -0.78125 L 0.4375 -1.5625 L 0.640625 -1.671875 L 1.1875 -0.59375 Z M 0.984375 -0.5 "/></g></g></g><g fill="#ffffff" fill-opacity="1"><g transform="translate(20.737164, 23.44819)"><g><path d="M 0.09375 -0.078125 L -0.609375 -1.046875 L -0.40625 -1.171875 L 0.296875 -0.203125 Z M 0.09375 -0.078125 "/></g></g></g><g fill="#ffffff" fill-opacity="1"><g transform="translate(21.726778, 22.701069)"><g><path d="M -0.28125 -0.796875 L 0.25 -0.25 L 0.09375 -0.09375 L -0.75 -0.953125 L -0.625 -1.078125 L 0.390625 -0.953125 L -0.171875 -1.515625 L -0.015625 -1.671875 L 0.828125 -0.8125 L 0.6875 -0.671875 Z M -0.28125 -0.796875 "/></g></g></g><g fill="#ffffff" fill-opacity="1"><g transform="translate(23.119177, 21.207949)"><g/></g></g><g fill="#ffffff" fill-opacity="1"><g transform="translate(23.789985, 20.269383)"><g><path d="M 0.0625 -0.109375 L -0.984375 -0.703125 L -0.734375 -1.15625 C -0.710938 -1.195312 -0.675781 -1.226562 -0.625 -1.25 C -0.582031 -1.28125 -0.535156 -1.300781 -0.484375 -1.3125 C -0.441406 -1.320312 -0.394531 -1.320312 -0.34375 -1.3125 C -0.289062 -1.3125 -0.242188 -1.300781 -0.203125 -1.28125 C -0.148438 -1.25 -0.109375 -1.210938 -0.078125 -1.171875 C -0.046875 -1.128906 -0.0195312 -1.085938 0 -1.046875 C 0.0078125 -1.003906 0.0078125 -0.957031 0 -0.90625 C -0.0078125 -0.851562 -0.0234375 -0.804688 -0.046875 -0.765625 L -0.1875 -0.515625 L 0.171875 -0.3125 Z M -0.359375 -0.609375 L -0.234375 -0.84375 C -0.210938 -0.875 -0.207031 -0.910156 -0.21875 -0.953125 C -0.226562 -1.003906 -0.265625 -1.046875 -0.328125 -1.078125 C -0.347656 -1.085938 -0.375 -1.09375 -0.40625 -1.09375 C -0.4375 -1.101562 -0.457031 -1.101562 -0.46875 -1.09375 C -0.488281 -1.082031 -0.507812 -1.070312 -0.53125 -1.0625 C -0.550781 -1.050781 -0.566406 -1.039062 -0.578125 -1.03125 L -0.703125 -0.796875 Z M -0.359375 -0.609375 "/></g></g></g><g fill="#ffffff" fill-opacity="1"><g transform="translate(24.62113, 18.651643)"><g><path d="M 0.046875 -0.125 L -1.09375 -0.515625 L -0.921875 -1.015625 C -0.898438 -1.054688 -0.867188 -1.097656 -0.828125 -1.140625 C -0.785156 -1.179688 -0.738281 -1.210938 -0.6875 -1.234375 C -0.644531 -1.253906 -0.597656 -1.265625 -0.546875 -1.265625 C -0.503906 -1.265625 -0.457031 -1.253906 -0.40625 -1.234375 C -0.34375 -1.210938 -0.285156 -1.175781 -0.234375 -1.125 C -0.179688 -1.070312 -0.15625 -1.003906 -0.15625 -0.921875 L 0.359375 -1.03125 L 0.28125 -0.78125 L -0.1875 -0.703125 L -0.265625 -0.484375 L 0.125 -0.34375 Z M -0.453125 -0.546875 L -0.359375 -0.828125 C -0.347656 -0.847656 -0.34375 -0.863281 -0.34375 -0.875 C -0.351562 -0.894531 -0.363281 -0.914062 -0.375 -0.9375 C -0.382812 -0.957031 -0.398438 -0.972656 -0.421875 -0.984375 C -0.441406 -0.992188 -0.460938 -1.003906 -0.484375 -1.015625 C -0.515625 -1.023438 -0.539062 -1.03125 -0.5625 -1.03125 C -0.582031 -1.03125 -0.601562 -1.023438 -0.625 -1.015625 C -0.65625 -1.015625 -0.675781 -1.003906 -0.6875 -0.984375 C -0.707031 -0.972656 -0.71875 -0.957031 -0.71875 -0.9375 L -0.8125 -0.671875 Z M -0.453125 -0.546875 "/></g></g></g><g fill="#ffffff" fill-opacity="1"><g transform="translate(25.188643, 16.842705)"><g><path d="M 0.109375 -0.640625 C 0.0976562 -0.546875 0.0664062 -0.46875 0.015625 -0.40625 C -0.0234375 -0.34375 -0.078125 -0.289062 -0.140625 -0.25 C -0.210938 -0.207031 -0.285156 -0.175781 -0.359375 -0.15625 C -0.441406 -0.132812 -0.519531 -0.128906 -0.59375 -0.140625 C -0.664062 -0.148438 -0.734375 -0.175781 -0.796875 -0.21875 C -0.867188 -0.257812 -0.925781 -0.3125 -0.96875 -0.375 C -1.019531 -0.4375 -1.054688 -0.503906 -1.078125 -0.578125 C -1.097656 -0.660156 -1.101562 -0.742188 -1.09375 -0.828125 C -1.070312 -0.898438 -1.035156 -0.96875 -0.984375 -1.03125 C -0.941406 -1.101562 -0.890625 -1.160156 -0.828125 -1.203125 C -0.765625 -1.242188 -0.691406 -1.269531 -0.609375 -1.28125 C -0.535156 -1.300781 -0.46875 -1.304688 -0.40625 -1.296875 C -0.320312 -1.285156 -0.25 -1.257812 -0.1875 -1.21875 C -0.125 -1.1875 -0.0664062 -1.140625 -0.015625 -1.078125 C 0.0351562 -1.015625 0.0703125 -0.941406 0.09375 -0.859375 C 0.125 -0.785156 0.128906 -0.710938 0.109375 -0.640625 Z M -0.546875 -0.375 C -0.492188 -0.363281 -0.441406 -0.363281 -0.390625 -0.375 C -0.347656 -0.382812 -0.304688 -0.398438 -0.265625 -0.421875 C -0.222656 -0.453125 -0.1875 -0.488281 -0.15625 -0.53125 C -0.125 -0.570312 -0.109375 -0.617188 -0.109375 -0.671875 C -0.0976562 -0.710938 -0.0976562 -0.757812 -0.109375 -0.8125 C -0.128906 -0.863281 -0.15625 -0.90625 -0.1875 -0.9375 C -0.21875 -0.96875 -0.253906 -0.992188 -0.296875 -1.015625 C -0.347656 -1.035156 -0.394531 -1.050781 -0.4375 -1.0625 C -0.476562 -1.070312 -0.523438 -1.070312 -0.578125 -1.0625 C -0.640625 -1.050781 -0.691406 -1.03125 -0.734375 -1 C -0.773438 -0.976562 -0.804688 -0.945312 -0.828125 -0.90625 C -0.859375 -0.875 -0.878906 -0.835938 -0.890625 -0.796875 C -0.898438 -0.734375 -0.894531 -0.675781 -0.875 -0.625 C -0.863281 -0.582031 -0.835938 -0.539062 -0.796875 -0.5 C -0.765625 -0.46875 -0.722656 -0.441406 -0.671875 -0.421875 C -0.628906 -0.398438 -0.585938 -0.382812 -0.546875 -0.375 Z M -0.546875 -0.375 "/></g></g></g><g fill="#ffffff" fill-opacity="1"><g transform="translate(10.177664, 18.297445)"><g><path d="M 5.6875 -7.6875 C 5.136719 -7.765625 4.578125 -7.789062 4.015625 -7.789062 C 2.914062 -7.789062 1.820312 -7.730469 0.730469 -7.566406 C 0.601562 -7.550781 0.441406 -7.402344 0.480469 -7.257812 C 0.507812 -7.144531 0.621094 -7.117188 0.734375 -7.117188 C 0.777344 -7.117188 0.816406 -7.117188 0.851562 -7.125 C 1.535156 -7.246094 2.222656 -7.273438 2.894531 -7.292969 C 3.007812 -5.394531 2.972656 -3.472656 2.894531 -1.570312 C 2.871094 -1.058594 2.835938 -0.550781 2.800781 -0.0351562 C 2.792969 0.0351562 2.871094 0.0703125 2.980469 0.0703125 C 3.15625 0.0703125 3.402344 -0.0195312 3.40625 -0.136719 C 3.585938 -2.128906 3.601562 -4.144531 3.558594 -6.144531 C 3.550781 -6.53125 3.542969 -6.921875 3.523438 -7.308594 C 3.664062 -7.308594 3.808594 -7.308594 3.949219 -7.308594 C 4.464844 -7.308594 4.988281 -7.292969 5.488281 -7.222656 C 5.644531 -7.222656 5.808594 -7.246094 5.886719 -7.410156 C 5.953125 -7.558594 5.828125 -7.671875 5.6875 -7.6875 Z M 5.6875 -7.6875 "/></g></g></g><g fill="#ffffff" fill-opacity="1"><g transform="translate(15.691061, 18.297445)"><g><path d="M 2.050781 -0.207031 C 1.792969 -2.34375 1.75 -4.515625 1.84375 -6.664062 C 1.863281 -6.9375 1.871094 -7.214844 1.902344 -7.480469 C 1.90625 -7.574219 1.816406 -7.609375 1.699219 -7.609375 C 1.527344 -7.609375 1.292969 -7.523438 1.277344 -7.402344 C 1.207031 -6.765625 1.199219 -6.109375 1.191406 -5.472656 C 1.15625 -3.550781 1.207031 -1.777344 1.429688 -0.0351562 C 1.4375 0.0273438 1.507812 0.0585938 1.601562 0.0585938 C 1.792969 0.0585938 2.066406 -0.0585938 2.050781 -0.207031 Z M 2.050781 -0.207031 "/></g></g></g><g clip-path="url(#60e14e5877)"><g clip-path="url(#af7d3f50a2)"><path fill="#ffffff" d="M 19.734375 16.503906 L 20.765625 16.503906 L 20.765625 17.53125 L 19.734375 17.53125 Z M 19.734375 16.503906 " fill-opacity="1" fill-rule="nonzero"/></g></g></svg>